<?xml version="1.0" standalone="no"?>
<!DOCTYPE svg PUBLIC "-//W3C//DTD SVG 20010904//EN"
 "http://www.w3.org/TR/2001/REC-SVG-20010904/DTD/svg10.dtd">
<svg version="1.0" xmlns="http://www.w3.org/2000/svg"
 width="300.000000pt" height="300.000000pt" viewBox="0 0 300.000000 300.000000"
 preserveAspectRatio="xMidYMid meet">
<metadata>
Created by potrace 1.10, written by Peter Selinger 2001-2011
</metadata>
<g transform="translate(0.000000,300.000000) scale(0.100000,-0.100000)"
fill="#000000" stroke="none">
<path d="M1500 1974 c-220 -60 -368 -302 -332 -545 38 -261 264 -453 484 -409
34 6 79 20 98 30 108 55 199 163 241 287 33 95 33 231 0 326 -77 227 -295 366
-491 311z m182 -24 c79 -22 128 -90 154 -209 19 -92 19 -395 -1 -479 -36 -153
-112 -222 -245 -222 -133 0 -209 69 -245 222 -21 88 -20 399 1 488 25 108 78
178 152 200 39 12 141 12 184 0z m-322 -107 c-29 -62 -42 -147 -45 -307 -3
-181 8 -280 40 -360 13 -33 23 -62 20 -64 -4 -5 -65 39 -65 47 0 3 -14 22 -30
41 -91 106 -126 293 -84 445 10 36 55 122 73 141 10 11 26 32 35 47 10 15 22
24 27 21 5 -3 9 -1 9 5 0 5 8 12 18 14 9 3 18 5 19 6 0 0 -7 -16 -17 -36z
m505 3 c55 -58 114 -174 131 -256 11 -57 6 -158 -12 -218 -15 -55 -50 -132
-63 -142 -4 -3 -18 -21 -31 -40 -49 -73 -118 -113 -82 -47 44 79 55 151 53
363 -1 195 -12 279 -46 358 -7 17 -6 17 16 6 13 -7 28 -18 34 -24z"/>
<path d="M230 1960 c0 -6 27 -10 60 -10 l60 0 0 -445 0 -445 -60 0 c-36 0 -60
-4 -60 -11 0 -7 81 -9 258 -7 241 3 261 5 315 26 161 65 252 207 264 412 11
187 -64 350 -194 427 -95 55 -144 63 -404 63 -153 0 -239 -4 -239 -10z m237
-459 l-2 -446 -48 0 -47 0 -3 447 -2 447 25 3 c14 2 37 1 52 -1 l26 -3 -1
-447z m284 426 c80 -39 128 -109 155 -224 24 -102 15 -365 -14 -448 -31 -85
-69 -135 -127 -164 -43 -23 -65 -26 -167 -30 l-118 -3 0 447 0 447 118 -4 c85
-3 127 -8 153 -21z m182 -93 c89 -90 118 -171 116 -329 -2 -152 -31 -233 -116
-330 -29 -32 -74 -65 -91 -65 -13 0 -12 3 4 15 10 8 15 15 11 15 -5 0 1 13 12
28 42 60 62 164 62 337 0 180 -9 236 -51 314 -16 29 -27 58 -24 62 3 5 -2 9
-10 9 -9 0 -16 5 -16 10 0 18 53 -16 103 -66z"/>
<path d="M2100 1961 c0 -7 26 -11 65 -11 l65 0 0 -445 0 -445 -65 0 c-37 0
-65 -4 -65 -10 0 -6 70 -10 190 -10 120 0 190 4 190 10 0 6 -27 10 -60 10
l-59 0 -3 204 -3 204 120 4 c107 3 126 7 172 31 98 51 147 157 123 270 -15 75
-58 130 -128 164 -57 28 -57 28 -299 31 -167 2 -243 0 -243 -7z m237 -15 c4
-4 4 -845 -1 -871 -2 -16 -11 -20 -47 -20 l-44 0 -3 447 c-2 420 -1 447 15
451 17 5 73 0 80 -7z m250 -22 c51 -37 68 -86 68 -204 0 -120 -17 -168 -75
-207 -28 -20 -46 -23 -129 -23 l-96 0 3 231 3 231 99 -4 c80 -2 104 -7 127
-24z m113 -51 c73 -79 80 -198 18 -289 -19 -28 -65 -64 -82 -64 -2 0 4 25 15
57 23 68 26 217 4 277 -23 66 -5 74 45 19z"/>
</g>
</svg>
